<svg width="16" height="16" viewBox="0 0 16 16" fill="none" xmlns="http://www.w3.org/2000/svg">
<path d="M7.99991 5.50001C7.50546 5.50001 7.02211 5.64663 6.61099 5.92133C6.19986 6.19604 5.87943 6.58648 5.69021 7.0433C5.50099 7.50011 5.45148 8.00278 5.54795 8.48773C5.64441 8.97269 5.88251 9.41814 6.23214 9.76777C6.58178 10.1174 7.02723 10.3555 7.51219 10.452C7.99714 10.5484 8.4998 10.4989 8.95662 10.3097C9.41344 10.1205 9.80388 9.80006 10.0786 9.38893C10.3533 8.97781 10.4999 8.49446 10.4999 8.00001C10.4999 7.33697 10.2365 6.70108 9.76768 6.23224C9.29884 5.7634 8.66295 5.50001 7.99991 5.50001ZM7.99991 9.50001C7.70324 9.50001 7.41323 9.41203 7.16656 9.24721C6.91988 9.08239 6.72762 8.84812 6.61409 8.57403C6.50056 8.29994 6.47086 7.99834 6.52873 7.70737C6.58661 7.4164 6.72947 7.14913 6.93925 6.93935C7.14903 6.72957 7.4163 6.58671 7.70728 6.52883C7.99825 6.47095 8.29985 6.50066 8.57394 6.61419C8.84803 6.72772 9.08229 6.91998 9.24712 7.16665C9.41194 7.41333 9.49991 7.70334 9.49991 8.00001C9.49991 8.39783 9.34188 8.77936 9.06057 9.06067C8.77927 9.34197 8.39774 9.50001 7.99991 9.50001ZM12.6068 9.94626C12.392 10.4541 12.0946 10.9229 11.7268 11.3338C11.6377 11.4301 11.5143 11.4876 11.3832 11.4938C11.2522 11.5 11.1239 11.4545 11.0261 11.3669C10.9283 11.2794 10.8689 11.157 10.8606 11.026C10.8523 10.895 10.8958 10.766 10.9818 10.6669C11.6383 9.93385 12.0013 8.98438 12.0013 8.00032C12.0013 7.01626 11.6383 6.06679 10.9818 5.33376C10.9368 5.28504 10.9019 5.22786 10.8792 5.16554C10.8565 5.10322 10.8464 5.037 10.8495 4.97074C10.8527 4.90449 10.869 4.83952 10.8975 4.77962C10.926 4.71972 10.9661 4.66609 11.0155 4.62185C11.0649 4.57761 11.1227 4.54365 11.1853 4.52194C11.248 4.50023 11.3144 4.49121 11.3806 4.4954C11.4468 4.49959 11.5115 4.51691 11.5709 4.54635C11.6304 4.57579 11.6833 4.61676 11.7268 4.66688C12.3581 5.37334 12.776 6.2445 12.9318 7.17906C13.0875 8.11362 12.9748 9.07321 12.6068 9.94626ZM4.31241 6.44313C4.0174 7.14149 3.92692 7.9093 4.05152 8.6571C4.17611 9.40491 4.51066 10.1019 5.01616 10.6669C5.10212 10.766 5.14565 10.895 5.13736 11.026C5.12907 11.157 5.06962 11.2794 4.97184 11.3669C4.87406 11.4545 4.74579 11.5 4.6147 11.4938C4.48362 11.4876 4.36023 11.4301 4.27116 11.3338C3.45028 10.4175 2.99635 9.23053 2.99635 8.00032C2.99635 6.77011 3.45028 5.58316 4.27116 4.66688C4.35959 4.56784 4.48375 4.50799 4.61631 4.50048C4.74888 4.49298 4.87899 4.53845 4.97804 4.62688C5.07708 4.71532 5.13693 4.83947 5.14443 4.97204C5.15194 5.1046 5.10647 5.23472 5.01804 5.33376C4.72304 5.66194 4.48458 6.03683 4.31241 6.44313ZM15.4999 8.00001C15.5029 9.96359 14.7331 11.8495 13.3568 13.25C13.3113 13.2987 13.2564 13.3378 13.1956 13.365C13.1347 13.3922 13.069 13.4069 13.0024 13.4083C12.9358 13.4098 12.8695 13.3979 12.8075 13.3733C12.7456 13.3488 12.6891 13.3121 12.6415 13.2654C12.5939 13.2188 12.5562 13.163 12.5304 13.1016C12.5047 13.0401 12.4915 12.9741 12.4916 12.9074C12.4918 12.8407 12.5052 12.7748 12.5312 12.7134C12.5572 12.652 12.5952 12.5965 12.643 12.55C13.8347 11.3359 14.5024 9.70253 14.5024 8.00126C14.5024 6.29998 13.8347 4.66666 12.643 3.45251C12.5499 3.35786 12.4981 3.23008 12.4992 3.09728C12.5002 2.96448 12.554 2.83754 12.6487 2.74438C12.7433 2.65123 12.8711 2.59948 13.0039 2.60054C13.1367 2.60159 13.2636 2.65536 13.3568 2.75001C14.7331 4.15053 15.5029 6.03642 15.4999 8.00001ZM3.35679 12.5488C3.40283 12.5956 3.43919 12.6511 3.4638 12.712C3.4884 12.7729 3.50077 12.8381 3.50019 12.9038C3.49961 12.9695 3.48609 13.0344 3.46042 13.0949C3.43474 13.1554 3.3974 13.2102 3.35054 13.2563C3.30367 13.3023 3.2482 13.3387 3.18728 13.3633C3.12636 13.3879 3.06119 13.4002 2.99549 13.3997C2.92979 13.3991 2.86485 13.3856 2.80438 13.3599C2.74391 13.3342 2.68908 13.2969 2.64304 13.25C1.2669 11.8491 0.49585 9.96378 0.49585 8.00001C0.49585 6.03623 1.2669 4.15096 2.64304 2.75001C2.68857 2.70133 2.74338 2.66224 2.80424 2.63505C2.8651 2.60786 2.93078 2.59311 2.99742 2.59167C3.06406 2.59023 3.13032 2.60213 3.19229 2.62668C3.25427 2.65122 3.31071 2.6879 3.3583 2.73458C3.40589 2.78125 3.44367 2.83697 3.46941 2.89846C3.49515 2.95994 3.50834 3.02595 3.5082 3.09261C3.50806 3.15927 3.49459 3.22523 3.46859 3.2866C3.44259 3.34798 3.40457 3.40354 3.35679 3.45001C2.16508 4.66416 1.49744 6.29748 1.49744 7.99876C1.49744 9.70003 2.16508 11.3334 3.35679 12.5475V12.5488Z" fill="#1C1C1C"/>
</svg>
