<svg width="16" height="16" viewBox="0 0 16 16" fill="none" xmlns="http://www.w3.org/2000/svg">
<path d="M13 9.00003H14C14.1326 9.00003 14.2598 8.94736 14.3536 8.85359C14.4473 8.75982 14.5 8.63264 14.5 8.50003C14.5 8.36743 14.4473 8.24025 14.3536 8.14648C14.2598 8.05271 14.1326 8.00003 14 8.00003H13V7.00003H14C14.1326 7.00003 14.2598 6.94736 14.3536 6.85359C14.4473 6.75982 14.5 6.63264 14.5 6.50003C14.5 6.36743 14.4473 6.24025 14.3536 6.14648C14.2598 6.05271 14.1326 6.00003 14 6.00003H12.975C12.8646 4.90263 12.3933 3.87283 11.635 3.07191L12.8538 1.85378C12.9002 1.80733 12.9371 1.75218 12.9622 1.69148C12.9873 1.63079 13.0003 1.56573 13.0003 1.50003C13.0003 1.43434 12.9873 1.36928 12.9622 1.30859C12.9371 1.24789 12.9002 1.19274 12.8538 1.14628C12.8073 1.09983 12.7521 1.06298 12.6914 1.03784C12.6308 1.0127 12.5657 0.999756 12.5 0.999756C12.4343 0.999756 12.3692 1.0127 12.3086 1.03784C12.2479 1.06298 12.1927 1.09983 12.1462 1.14628L10.8781 2.41503C10.0365 1.81967 9.03093 1.49996 8 1.49996C6.96907 1.49996 5.96351 1.81967 5.12187 2.41503L3.85375 1.14628C3.75993 1.05246 3.63268 0.999756 3.5 0.999756C3.36732 0.999756 3.24007 1.05246 3.14625 1.14628C3.05243 1.2401 2.99972 1.36735 2.99972 1.50003C2.99972 1.63272 3.05243 1.75996 3.14625 1.85378L4.365 3.07191C3.6067 3.87283 3.13544 4.90263 3.025 6.00003H2C1.86739 6.00003 1.74021 6.05271 1.64645 6.14648C1.55268 6.24025 1.5 6.36743 1.5 6.50003C1.5 6.63264 1.55268 6.75982 1.64645 6.85359C1.74021 6.94736 1.86739 7.00003 2 7.00003H3V8.00003H2C1.86739 8.00003 1.74021 8.05271 1.64645 8.14648C1.55268 8.24025 1.5 8.36743 1.5 8.50003C1.5 8.63264 1.55268 8.75982 1.64645 8.85359C1.74021 8.94736 1.86739 9.00003 2 9.00003H3V9.50003C3 9.66878 3.00875 9.83566 3.025 10H2C1.86739 10 1.74021 10.0527 1.64645 10.1465C1.55268 10.2402 1.5 10.3674 1.5 10.5C1.5 10.6326 1.55268 10.7598 1.64645 10.8536C1.74021 10.9474 1.86739 11 2 11H3.23C3.54904 12.0152 4.18366 12.9022 5.04155 13.5318C5.89944 14.1615 6.93584 14.501 8 14.501C9.06416 14.501 10.1006 14.1615 10.9584 13.5318C11.8163 12.9022 12.451 12.0152 12.77 11H14C14.1326 11 14.2598 10.9474 14.3536 10.8536C14.4473 10.7598 14.5 10.6326 14.5 10.5C14.5 10.3674 14.4473 10.2402 14.3536 10.1465C14.2598 10.0527 14.1326 10 14 10H12.975C12.9913 9.83566 13 9.66878 13 9.50003V9.00003ZM8 2.50003C8.97381 2.50125 9.91381 2.85728 10.6441 3.5015C11.3744 4.14572 11.8448 5.03398 11.9675 6.00003H4.03C4.15271 5.03355 4.62356 4.14495 5.35435 3.50067C6.08515 2.8564 7.02576 2.50064 8 2.50003ZM8.5 13.4675V8.50003C8.5 8.36743 8.44732 8.24025 8.35355 8.14648C8.25979 8.05271 8.13261 8.00003 8 8.00003C7.86739 8.00003 7.74021 8.05271 7.64645 8.14648C7.55268 8.24025 7.5 8.36743 7.5 8.50003V13.4675C6.53394 13.3449 5.64568 12.8744 5.00146 12.1441C4.35724 11.4138 4.00121 10.4738 4 9.50003V7.00003H12V9.50003C11.9988 10.4738 11.6428 11.4138 10.9985 12.1441C10.3543 12.8744 9.46606 13.3449 8.5 13.4675Z" fill="#1C1C1C"/>
</svg>
