<svg width="17" height="16" viewBox="0 0 17 16" fill="none" xmlns="http://www.w3.org/2000/svg">
<path d="M9.625 4.25002V7.64612L12.4469 9.33909C12.589 9.42445 12.6914 9.56279 12.7316 9.72366C12.7717 9.88453 12.7463 10.0548 12.6609 10.1969C12.5756 10.339 12.4372 10.4414 12.2764 10.4816C12.1155 10.5217 11.9453 10.4963 11.8031 10.411L8.67812 8.53596C8.58563 8.48039 8.50911 8.40183 8.45599 8.30791C8.40287 8.21399 8.37497 8.10792 8.375 8.00002V4.25002C8.375 4.08426 8.44085 3.92529 8.55806 3.80808C8.67527 3.69087 8.83424 3.62502 9 3.62502C9.16576 3.62502 9.32473 3.69087 9.44194 3.80808C9.55915 3.92529 9.625 4.08426 9.625 4.25002ZM9 0.500023C8.01406 0.497567 7.03742 0.690675 6.12661 1.06817C5.21579 1.44566 4.38889 2.00005 3.69375 2.69924C3.12578 3.27424 2.62109 3.82737 2.125 4.40627V3.00002C2.125 2.83426 2.05915 2.67529 1.94194 2.55808C1.82473 2.44087 1.66576 2.37502 1.5 2.37502C1.33424 2.37502 1.17527 2.44087 1.05806 2.55808C0.940848 2.67529 0.875 2.83426 0.875 3.00002V6.12502C0.875 6.29078 0.940848 6.44975 1.05806 6.56697C1.17527 6.68418 1.33424 6.75002 1.5 6.75002H4.625C4.79076 6.75002 4.94973 6.68418 5.06694 6.56697C5.18415 6.44975 5.25 6.29078 5.25 6.12502C5.25 5.95926 5.18415 5.80029 5.06694 5.68308C4.94973 5.56587 4.79076 5.50002 4.625 5.50002H2.82812C3.38672 4.84221 3.94297 4.22268 4.57734 3.58049C5.44598 2.71186 6.55133 2.11847 7.75529 1.87446C8.95924 1.63045 10.2084 1.74665 11.3467 2.20853C12.485 2.67041 13.4619 3.45749 14.1555 4.47144C14.849 5.48538 15.2283 6.68121 15.2461 7.90952C15.2639 9.13782 14.9193 10.3441 14.2554 11.3777C13.5915 12.4113 12.6377 13.2263 11.5132 13.7209C10.3888 14.2155 9.1435 14.3678 7.93299 14.1587C6.72249 13.9496 5.60043 13.3885 4.70703 12.5453C4.64732 12.4889 4.57708 12.4448 4.50032 12.4155C4.42356 12.3862 4.34179 12.3724 4.25967 12.3747C4.17754 12.377 4.09668 12.3955 4.0217 12.429C3.94672 12.4626 3.87908 12.5106 3.82266 12.5703C3.76623 12.63 3.72212 12.7003 3.69283 12.777C3.66355 12.8538 3.64967 12.9356 3.652 13.0177C3.65432 13.0998 3.67279 13.1807 3.70636 13.2557C3.73993 13.3306 3.78795 13.3983 3.84766 13.4547C4.73785 14.2948 5.82012 14.9042 7 15.2298C8.17989 15.5554 9.42153 15.5873 10.6166 15.3226C11.8116 15.058 12.9237 14.505 13.8559 13.7117C14.788 12.9184 15.5118 11.9091 15.9642 10.7718C16.4165 9.63442 16.5836 8.40366 16.4509 7.18689C16.3182 5.97011 15.8897 4.80431 15.2029 3.79122C14.516 2.77813 13.5916 1.94854 12.5104 1.37485C11.4292 0.801167 10.224 0.50082 9 0.500023Z" fill="white"/>
</svg>
