<svg width="12" height="14" viewBox="0 0 12 14" fill="none" xmlns="http://www.w3.org/2000/svg">
<path d="M8.5 8.50003C8.5 8.63264 8.44732 8.75982 8.35355 8.85359C8.25979 8.94735 8.13261 9.00003 8 9.00003H4C3.86739 9.00003 3.74021 8.94735 3.64645 8.85359C3.55268 8.75982 3.5 8.63264 3.5 8.50003C3.5 8.36742 3.55268 8.24025 3.64645 8.14648C3.74021 8.05271 3.86739 8.00003 4 8.00003H8C8.13261 8.00003 8.25979 8.05271 8.35355 8.14648C8.44732 8.24025 8.5 8.36742 8.5 8.50003ZM8 6.00003H4C3.86739 6.00003 3.74021 6.05271 3.64645 6.14648C3.55268 6.24025 3.5 6.36742 3.5 6.50003C3.5 6.63264 3.55268 6.75982 3.64645 6.85358C3.74021 6.94735 3.86739 7.00003 4 7.00003H8C8.13261 7.00003 8.25979 6.94735 8.35355 6.85358C8.44732 6.75982 8.5 6.63264 8.5 6.50003C8.5 6.36742 8.44732 6.24025 8.35355 6.14648C8.25979 6.05271 8.13261 6.00003 8 6.00003ZM11.5 2.00003V12.5C11.5 12.7652 11.3946 13.0196 11.2071 13.2071C11.0196 13.3947 10.7652 13.5 10.5 13.5H1.5C1.23478 13.5 0.98043 13.3947 0.792893 13.2071C0.605357 13.0196 0.5 12.7652 0.5 12.5V2.00003C0.5 1.73482 0.605357 1.48046 0.792893 1.29292C0.98043 1.10539 1.23478 1.00003 1.5 1.00003H3.76625C4.04719 0.685484 4.39139 0.433817 4.77633 0.261505C5.16127 0.0891935 5.57826 0.00012207 6 0.00012207C6.42174 0.00012207 6.83873 0.0891935 7.22367 0.261505C7.6086 0.433817 7.95281 0.685484 8.23375 1.00003H10.5C10.7652 1.00003 11.0196 1.10539 11.2071 1.29292C11.3946 1.48046 11.5 1.73482 11.5 2.00003ZM4 3.00003H8C8 2.4696 7.78929 1.96089 7.41421 1.58582C7.03914 1.21075 6.53043 1.00003 6 1.00003C5.46957 1.00003 4.96086 1.21075 4.58579 1.58582C4.21071 1.96089 4 2.4696 4 3.00003ZM10.5 2.00003H8.82812C8.94186 2.32117 8.99999 2.65935 9 3.00003V3.50003C9 3.63264 8.94732 3.75982 8.85355 3.85358C8.75979 3.94735 8.63261 4.00003 8.5 4.00003H3.5C3.36739 4.00003 3.24021 3.94735 3.14645 3.85358C3.05268 3.75982 3 3.63264 3 3.50003V3.00003C3.00001 2.65935 3.05814 2.32117 3.17188 2.00003H1.5V12.5H10.5V2.00003Z" fill="white"/>
</svg>
