<svg width="16" height="18" viewBox="0 0 16 18" fill="none" xmlns="http://www.w3.org/2000/svg">
<path d="M15.3282 12.7453C14.8946 11.9984 14.2501 9.88516 14.2501 7.125C14.2501 5.4674 13.5916 3.87769 12.4195 2.70558C11.2474 1.53348 9.65767 0.875 8.00007 0.875C6.34247 0.875 4.75276 1.53348 3.58065 2.70558C2.40855 3.87769 1.75007 5.4674 1.75007 7.125C1.75007 9.88594 1.10476 11.9984 0.671165 12.7453C0.560439 12.9352 0.501739 13.1509 0.500984 13.3707C0.500229 13.5905 0.557447 13.8066 0.666867 13.9973C0.776287 14.1879 0.934039 14.3463 1.12422 14.4565C1.31439 14.5667 1.53027 14.6248 1.75007 14.625H4.93835C5.08255 15.3306 5.46603 15.9647 6.02392 16.4201C6.58182 16.8756 7.2799 17.1243 8.00007 17.1243C8.72025 17.1243 9.41832 16.8756 9.97622 16.4201C10.5341 15.9647 10.9176 15.3306 11.0618 14.625H14.2501C14.4698 14.6247 14.6856 14.5665 14.8757 14.4562C15.0657 14.346 15.2234 14.1875 15.3327 13.9969C15.442 13.8063 15.4992 13.5903 15.4984 13.3705C15.4976 13.1508 15.4389 12.9351 15.3282 12.7453ZM8.00007 15.875C7.61243 15.8749 7.23435 15.7546 6.91788 15.5308C6.60141 15.3069 6.3621 14.9905 6.23288 14.625H9.76726C9.63804 14.9905 9.39873 15.3069 9.08226 15.5308C8.76579 15.7546 8.38771 15.8749 8.00007 15.875ZM1.75007 13.375C2.35163 12.3406 3.00007 9.94375 3.00007 7.125C3.00007 5.79892 3.52686 4.52715 4.46454 3.58947C5.40222 2.65178 6.67399 2.125 8.00007 2.125C9.32615 2.125 10.5979 2.65178 11.5356 3.58947C12.4733 4.52715 13.0001 5.79892 13.0001 7.125C13.0001 9.94141 13.6469 12.3383 14.2501 13.375H1.75007Z" fill="white"/>
</svg>
