<svg width="18" height="14" viewBox="0 0 18 14" fill="none" xmlns="http://www.w3.org/2000/svg">
<path d="M15.875 0.125H2.125C1.79348 0.125 1.47554 0.256696 1.24112 0.491116C1.0067 0.725537 0.875 1.04348 0.875 1.375V12.625C0.875 12.9565 1.0067 13.2745 1.24112 13.5089C1.47554 13.7433 1.79348 13.875 2.125 13.875H15.875C16.2065 13.875 16.5245 13.7433 16.7589 13.5089C16.9933 13.2745 17.125 12.9565 17.125 12.625V1.375C17.125 1.04348 16.9933 0.725537 16.7589 0.491116C16.5245 0.256696 16.2065 0.125 15.875 0.125ZM2.125 8.875H3.375C3.54076 8.875 3.69973 8.80915 3.81694 8.69194C3.93415 8.57473 4 8.41576 4 8.25C4 8.08424 3.93415 7.92527 3.81694 7.80806C3.69973 7.69085 3.54076 7.625 3.375 7.625H2.125V6.375H3.375C3.54076 6.375 3.69973 6.30915 3.81694 6.19194C3.93415 6.07473 4 5.91576 4 5.75C4 5.58424 3.93415 5.42527 3.81694 5.30806C3.69973 5.19085 3.54076 5.125 3.375 5.125H2.125V3.875H3.375C3.54076 3.875 3.69973 3.80915 3.81694 3.69194C3.93415 3.57473 4 3.41576 4 3.25C4 3.08424 3.93415 2.92527 3.81694 2.80806C3.69973 2.69085 3.54076 2.625 3.375 2.625H2.125V1.375H5.25V12.625H2.125V8.875ZM15.875 12.625H6.5V1.375H15.875V12.625Z" fill="white"/>
</svg>
