<svg width="18" height="18" viewBox="0 0 18 18" fill="none" xmlns="http://www.w3.org/2000/svg">
<path d="M17.6875 6.60081C17.6118 6.36752 17.4692 6.16164 17.2773 6.00884C17.0855 5.85603 16.8529 5.76303 16.6086 5.74143L11.9688 5.34143L10.15 1.01643C10.0553 0.789493 9.8956 0.595642 9.69097 0.459291C9.48633 0.322939 9.24592 0.250183 9.00002 0.250183C8.75411 0.250183 8.51371 0.322939 8.30907 0.459291C8.10443 0.595642 7.94471 0.789493 7.85002 1.01643L6.03674 5.34143L1.39142 5.74378C1.14614 5.76439 0.912399 5.85696 0.719516 6.00988C0.526633 6.16281 0.383193 6.36927 0.307183 6.60339C0.231173 6.83751 0.225978 7.08886 0.292249 7.32592C0.358519 7.56298 0.493305 7.7752 0.679705 7.93596L4.20392 11.0157L3.14767 15.5891C3.09182 15.8284 3.10776 16.0789 3.19349 16.3092C3.27923 16.5396 3.43095 16.7395 3.6297 16.8841C3.82845 17.0286 4.0654 17.1114 4.31093 17.122C4.55647 17.1326 4.79968 17.0706 5.01017 16.9438L8.99455 14.5219L12.9875 16.9438C13.198 17.0706 13.4412 17.1326 13.6868 17.122C13.9323 17.1114 14.1692 17.0286 14.368 16.8841C14.5667 16.7395 14.7185 16.5396 14.8042 16.3092C14.8899 16.0789 14.9059 15.8284 14.85 15.5891L13.7945 11.011L17.318 7.93596C17.5044 7.77465 17.6389 7.56183 17.7046 7.32426C17.7704 7.0867 17.7644 6.835 17.6875 6.60081ZM16.4985 6.99143L12.975 10.0664C12.8035 10.2156 12.676 10.4087 12.606 10.625C12.5361 10.8412 12.5265 11.0724 12.5781 11.2938L13.6367 15.875L9.64689 13.4532C9.45223 13.3346 9.22871 13.2719 9.0008 13.2719C8.77288 13.2719 8.54936 13.3346 8.3547 13.4532L4.37033 15.875L5.42189 11.2969C5.47357 11.0756 5.46393 10.8443 5.394 10.6281C5.32407 10.4118 5.1965 10.2187 5.02502 10.0696L1.50002 6.99612C1.49973 6.99379 1.49973 6.99143 1.50002 6.98909L6.14377 6.58753C6.37049 6.56754 6.58745 6.48604 6.77125 6.3518C6.95505 6.21757 7.09871 6.0357 7.18674 5.82581L9.00002 1.50628L10.8125 5.82581C10.9005 6.0357 11.0442 6.21757 11.228 6.3518C11.4118 6.48604 11.6288 6.56754 11.8555 6.58753L16.5 6.98909C16.5 6.98909 16.5 6.99378 16.5 6.99456L16.4985 6.99143Z" fill="currentColor"/>
</svg>
